<svg xmlns="http://www.w3.org/2000/svg"><defs><font id="courier_newregular" horiz-adv-x="2683"><font-face units-per-em="4096" ascent="3276" descent="-820"/><glyph horiz-adv-x="0"/><glyph/><glyph/><glyph unicode="!" d="M1090 2449l-5 13q0 172 185 172h123q196 0 196-176v-4l-73-1463v-12q0-119-119-119h-115q-123 0-123 115l4 16zM1425 0h-172q-114 0-213 78-98 78-98 188v111q0 106 98 190 99 84 205 84h180q111 0 211-82 101-82 101-192V270q0-110-99-190-98-80-213-80z"/><glyph unicode="&quot;" d="M1892 2560h4q103 0 103-106l-53-803v-9q0-155-119-155h-164q-90 4-102 164l-58 803q0 106 107 106h282zm-1106 0h283q107 0 107-106l-58-803q-12-160-102-164H852q-123 0-123 155l4 9-57 803q0 106 102 106h8z"/><glyph unicode="#" d="M1495 1094l21 516h-312l-33-516h324zm-410 1880h91q86 0 86-135l-45-930h315l53 930q0 135 86 135h86q90 0 90-135l-41-930h303q95 0 95-90v-103q0-102-95-102h-315l-29-520h344q95 0 95-90V901q0-102-95-102h-368l-53-930q0-131-78-131h-103q-90 0-90 139l53 922h-311l-57-922q0-139-82-139H918q-87 0-87 139l66 922H565q-90 0-90 102v98q0 95 90 95h344l29 520H565q-90 0-90 102v103q0 90 90 90h389l41 930q0 135 90 135z"/><glyph unicode="$" d="M1376 2945h103q90 0 90-127v-221q98-17 299-111 0 74 94 74h78q86 0 86-94v-422q0-90-74-90h-131q-82 0-82 90-37 168-176 223t-320 60q-167 0-319-95-152-94-152-250v-32q0-99 94.5-178.5T1196 1634q-94 35-94 37 8 0 282-94 447-152 574-246 127-74 196-227 70-154 70-309v-13q0-245-131-389-131-143-301-196.5T1479 143q-4 0-13 4h-16l-33-553q0-122-86-122h-131q-90 0-90 102l37 586h-12q-13-4-17-4-147 0-327 131 0-78-99-78h-98q-131 0-131 172v344q0 160 131 160h86q151 0 151-213l-4-4q0-90 170-150 170-59 346-67 74-9 103-9 176 0 286.5 80T1860 766q0 106-64 199-63 92-186 141-62 24-369 131-270 94-389 156-176 90-256 225t-84 328l-4 4q0 204 108 356 109 152 283 229 174 78 363 78l8 193q0 139 106 139z"/><glyph unicode="%" d="M1556 901q-155 0-253.5-96T1204 569q0-143 98.5-233t274.5-90q164 0 258 90t94 229v25q-4 139-106.5 225T1556 901zm9 246q290 0 460-162t170-412v-8q0-250-174-407.5T1556-4h-20q-279 0-438.5 164T938 569q0 254 168 416t459 162zm-516 1331q-156 0-254.5-98.5T696 2146q0-143 98.5-235t274.5-92q164 0 258 92t94 227v29q0 139-104.5 225t-267.5 86zm8 242q291 0 461-160t170-410v-12q0-250-175-407-174-158-464-158h-9q-8-4-12-4-278 0-438 166t-160 411q0 254 168 414t459 160zM618 946h-16q-12-4-16-4-115 0-119 94-4 13-4 25 0 90 74 115l1474 602h45q90 0 107-78 8-12 8-37 0-49-41-90z"/><glyph unicode="&amp;" d="M1192 238q123 4 221 53t131 119l-471 663q-102-49-184-172t-82-258q0-172 106-291 107-119 271-119zm643 1892q0-164-172-172-111 0-139 53-99 115-258 115h-17q-98 0-168-53-69-54-69-177 0-118 61-204l668-955q82 127 82 287 0 213 159 233h164q99 0 99-110v-135q-9-58-66-66-61-12-78-41-4-102-43-229t-104-209l131-205h74q57 0 57-45V45q0-57-62-57h-278l-152 172q-12-58-217-135-204-78-409-78-283 0-477.5 182T426 590q0 254 131 448 131 195 315 289-106 143-157 274.5T664 1864q0 213 163 379 164 165 390 165 155 0 239-20.5t170-93.5h115q94 0 94-164z"/><glyph unicode="'" d="M1237 2560h467q37-4 37-45 0-25-21-66l-479-995q-37-78-90-78-16 0-33 8l-131 78q-41 25-41 66 0 12 4 37l13 53-5-21 222 865q0 78 57 98z"/><glyph unicode="(" d="M1667 2634h62q57-4 57-82 0-74-33-123-78-127-182-408-105-280-176-596-72-315-72-548 0-234 65.5-537T1556-236q103-272 197-419 25-66 25-123 0-82-49-94h-74q-144 53-328 356t-311 700Q889 582 889 889q0 319 131 722.5t317 698.5q187 295 330 324z"/><glyph unicode=")" d="M926 2429q-37 57-37 123 0 78 61 82h62q139-25 327-318 189-293 322-692t133-719v-16q0-307-129-705-129-397-311.5-700T1024-872h-74q-53 12-53 94 0 57 29 123 94 147 196 419 103 273 168 576 66 303 66 537 0 233-72 548-72 316-176 596-104 281-182 408z"/><glyph unicode="*" d="M1507 2560l-53-692 631 254 123-336-680-164 459-516-295-229-353 602-356-602-291 229 459 516-684 164 127 336 631-254-54 692h336z"/><glyph unicode="+" d="M1389 221h-103q-106 0-106 139v840H352q-123 0-123 103v81q0 123 123 123h828v877q0 119 102 119h111q106 0 106-119v-877h828q122 0 122-123v-81q0-103-122-103h-828V360q0-139-110-139z"/><glyph unicode="," d="M1225-618q-33-78-107-78-20 0-37 4l-180 74q-45 24-45 77 0 9 4 29l8 33 287 1093q0 74 66 99h548q46 0 46-62 0-24-9-57l4 4z"/><glyph unicode="-" d="M2232 782H451q-99 0-99 82v160q0 86 103 86h1765q107 0 107-86V868q0-86-95-86z"/><glyph unicode="." d="M1425 721q115-8 229.5-100.5T1769 414V270q0-110-116-209-117-98-236-102h-155q-119 4-236 102-117 99-117 209v144q0 114 115 206.5T1253 721h172z"/><glyph unicode="/" d="M2007 3092h70q114 0 114-172 0-24-8-49L766-172q-29-61-94-61h-86l-4 4q-103 0-103 147 0 12 4 29 13 43 13 45v-2l-4-15 1404 3015q41 102 111 102z"/><glyph unicode="0" d="M1339 254q172 0 291 129t178 379q60 250 60 602 0 303-62 563-61 260-184 413.5T1331 2494t-287-153q-118-154-176-414-57-260-57-563 0-352 59-602 60-250 178.5-379T1339 254zm0-307q-315 0-512 205-196 204-280 534t-84 707q0 352 88 675 88 324 286.5 527t497.5 203q312 0 510-203 199-203 287-527 88-323 88-675v-29q0-365-82-688.5t-280.5-526T1339-53z"/><glyph unicode="1" d="M1380 2798h74q57 0 57-82V295h504q135 0 135-111v-82q0-102-118-102H647Q528 0 528 98v86q0 111 136 111h516v2134l-484-107h-12q-8-4-12-4-115 0-115 111v65q0 78 61 91z"/><glyph unicode="2" d="M1384 2802h9q200 0 391-95 190-94 309-276t119-428v-4q0-262-115-459t-192-258L934 319h979l49 140q29 73 119 73h4q147 0 147-114V172q0-172-123-172H594Q446 0 446 143v99q0 45 58 123l1044 1032q58 41 178 209 121 168 121 360v8q0 238-137 381-137 144-334 144-180 0-313-78t-186-185q-21-77-25-86-45-77-168-77-135 0-135 127v213q0 57 256 223t579 166z"/><glyph unicode="3" d="M1368 2798q242 0 416-103 174-102 262-274t88-373q0-279-121-395.5T1688 1479q262-54 405-230t143-438v-8q0-271-125-465-124-195-342-293-217-98-479-98-307 0-575 104-269 105-269 228v102q0 98 127 98h9q90 0 143-28 410-205 410-207l-5 2q-8 4-8 6 0 14 176 14 250 0 416 139.5T1880 762q0 250-149.5 389T1290 1290h-41q-123 0-123 90v99q0 102 95 102h20q12-4 16-4 213 0 373 114.5t160 360.5q0 148-127 285t-315 137h-5q-188 0-284-47t-273-178h-86q-106 0-106 78v114q0 82 235 219 236 138 527 138h12z"/><glyph unicode="4" d="M762 991h811v1458zm1392 74q70 0 70-61V856q0-188-119-188h-221V295h193q118 0 118-94V94q0-94-102-94h-840q-90 0-90 86v102q0 107 107 107h307v373H528q-77 0-77 86v254l999 1728q33 57 102 57l271-45q61-8 61-57V987h131q29 78 111 78h28z"/><glyph unicode="5" d="M676 2720h1266q126 0 126-90v-127q0-103-135-103H885v-704q94 41 202 67 109 27 244 27 291 0 504-119t319-321q107-203 107-449 0-315-135-532T1759 47Q1528-57 1253-57q-303 0-571 96T414 238v69q0 107 151 107 25 0 53-4 205-86 332-121t295-39h8l9-4q278 0 460 178 183 178 183 481 0 250-193 422-192 172-414 172-180 0-364-94-49-41-180-102h-99q-77 0-77 86v1245q0 86 98 86z"/><glyph unicode="6" d="M463 1180q0 417 159.5 792t467.5 600q307 226 708 226h254q127 0 127-127v-13q0-143-115-143h-274q-201 0-406-121-204-121-356-364-151-244-197-576l25-8q86 127 239.5 205t297.5 78q274 0 458-127 185-127 271-336t86-451q0-229-92.5-428T1837 67.5 1389-53h-5q-319 0-528 178T555 583.5 463 1180zm913 237q-254 0-387-168T856 856q0-238 141-420 142-182 392-182 229 0 350 164t121 385q0 241-121 427.5T1376 1417z"/><glyph unicode="7" d="M1090-41q-74 0-74 66v12l860 2363H774l-8-119q-12-77-143-77-144 0-144 102v12l33 303q8 99 98 99h1524q86 0 86-107 0-61-25-147L1384 37q-16-78-57-78h-237z"/><glyph unicode="8" d="M848 2019q0-229 139-356t340-127l12 4q201 0 346.5 127t145.5 352q0 213-135 338t-357 125h-12q-217 0-348-125t-131-338zM2216 750q0-238-115-422-114-185-317-283t-445-98q-245 0-448 98T575 326Q463 508 463 750q0 233 133 419 133 187 330 215v25q-176 70-305 199t-134 411q0 209 117 389 117 181 314 285 196 105 417 105h8q222 0 418-105 197-104 314-285 116-180 116-389 0-282-131-411t-307-199v-25q197-28 330-213 133-184 133-421zm-877 487h-12q-209 0-360.5-127T815 741q0-241 151.5-364T1339 254q217 0 371 123t154 364q0 246-156 371t-369 125z"/><glyph unicode="9" d="M1303 1315q253 0 384.5 168t131.5 397q0 238-140 420-139 182-393 182-225 0-346-166t-121-387q0-241 123-428 123-186 361-186zM627-61Q500-61 500 61l-4 9q0 147 118 147h267l4-4q200 0 405 123t359 366q153 244 198 580l-24 4q-90-127-244-205-154-77-297-77-270 0-455 126-184 127-272 338t-88 449q0 229 92 430t278.5 321.5T1286 2789q324 0 533-176t301-456.5 92-600.5q0-421-160-796t-465-598T877-61H627z"/><glyph unicode=":" d="M1253 1159q-118 4-235 102.5T901 1470v140q0 114 114.5 206.5T1245 1917h172q115-8 229.5-100.5T1761 1610v-140q0-110-116.5-208.5T1409 1159h-156zM909 270v144q0 114 115 206.5T1253 721h172q115-8 229.5-100.5T1769 414V270q0-110-116-209-117-98-236-102h-155q-119 4-236 102-117 99-117 209z"/><glyph unicode=";" d="M1409 1159h-156q-118 4-235 102.5T901 1470v140q0 114 114.5 206.5T1245 1917h172q115-8 229.5-100.5T1761 1610v-140q0-110-116.5-208.5T1409 1159zm352-639L1212-623q-24-65-98-65h-37l4-4-180 74q-41 12-41 61 0 12 4 33 8 32 8 37l267 1019q24 107 86 107h491q49 0 49-57 0-29-8-66z"/><glyph unicode="&lt;" d="M2294 2408h78q90 0 90-86v-86q0-65-62-94L770 1364l1618-786q74-29 74-91V385q0-90-95-90h-86l-69 12 4 4-1954 926q-45 41-45 66v114q0 62 62 82l1953 901q4 0 62 8z"/><glyph unicode="=" d="M2437 1049V934q0-103-86-103H328q-90 0-90 103v115q0 106 90 106h2023q86 0 86-106zM328 1880h2023q86 0 86-102v-119q0-103-86-103H328q-90 0-90 103v119q0 102 90 102z"/><glyph unicode="&gt;" d="M446 2400l1954-901q62-20 62-82v-114q0-25-49-66L463 311v-4l-66-12h-86q-94 0-94 90v102q0 62 74 91l1618 786-1630 778q-62 29-62 94v86q0 86 90 86h78q57-8 61-8z"/><glyph unicode="?" d="M1167 0q-159 0-270 71.5T786 315q0 160 115 231.5t258 71.5h17q188 0 300.5-77.5T1589 303q0-156-127-229.5T1167 0zm652 1360q-54-33-279-123-197-78-197-98V950q0-119-98-119h-119q-102 0-102 103v233q0 111 111 185 61 49 192 102 164 66 209 90 123 70 196.5 158t73.5 194v13q-8 196-170 313-161 117-366 117-123 0-275-39-151-39-151-109v-90q0-131-119-131h-70q-118 0-118 119v311q0 29 57 70 102 78 307 121t381 43h21q229 0 421-84 193-84 307.5-252t114.5-402q0-167-84-303-84-135-243-233z"/><glyph unicode="@" d="M2077 2191V1036l69-106q13-17 13-49 0-62-58-140-61-57-123-57-49 0-86 37l-82 78q-36-45-319-74h-25q-16-4-24-4-197 0-328 174t-131 416q0 291 172 495 172 205 434 205h193q0 270-78 471t-303 201q-217 0-350-211t-189-512q-55-301-55-571l4-17q4-323 57-614 54-291 207-496 154-205 424-217l4-4q226 0 369 90h20q95 0 123-98-33-139-86-164-123-57-215-80-92-22-178-22h-37q-397 20-614 257.5T598 606t-70 762q0 385 70 739 70 355 266 596 197 242 545 242 229 0 381-104.5t219-276.5q68-172 68-373zm-475-430q-119 0-228-112-108-113-108-289l4-45q8-139 76-234 67-94 153-94 8 0 24.5 4t20.5 4q238 0 238 58v708h-180z"/><glyph unicode="A" d="M1307 2269L889 1110h872zM795 815L602 295h316q135 0 135-102v-82Q1053 0 918 0H119Q0 0 0 111v82q0 102 119 102h147l725 1970H594q-148 0-148 107v82q0 106 148 106h852q110 0 156-152l852-2113h118q103 0 103-98v-91q0-106-103-106h-819q-111 61-111 106v82q0 107 115 107h320l-209 520H795z"/><glyph unicode="B" d="M1991 1372v-24q213-29 350-207t137-400v-12q0-201-92-356.5T2124 121 1741 0H319Q209 0 209 111v82q0 102 110 102h222v1970H319q-110 0-110 107v82q0 106 110 106h1283q282 0 493-195 211-194 211-481 0-164-76-305t-239-207zM881 2265v-799h618q168 0 299 125t131 289q0 156-114 270-115 115-271 115H881zm712-1970q222 12 361 112.5T2093 733q0 185-135 311-135 127-316 127H881V295h712z"/><glyph unicode="C" d="M2171 1671q-156 0-156 209 0 188-155.5 323.5T1425 2339q-258 0-442-141.5T705 1810q-95-245-95-544 0-258 106.5-498t299-385T1442 238q184 0 382.5 86T2146 516q70 49 144 49h16q131 0 139-106v-8q0-86-24-95-140-180-428-295-289-114-568-114h-8q-360 0-633 178-272 178-413 485-142 308-142 668 0 356 145.5 669.5T795 2447q274 187 639 187 184 0 323-23 139-22 275-108 8-4 12-4 16 0 16 12 13 94 111 94h94q123 0 123-147v-693q0-94-119-94h-98z"/><glyph unicode="D" d="M1339 295q238 12 412 143t266 350q92 220 92 494v12q0 254-86 471t-260 352.5-424 147.5H807V295h532zM319 2560h1061q336-12 584-184t373-449q125-276 125-592v-8q0-385-129-682t-379-465T1368 0H319Q217 0 217 111v82q0 102 102 102h148v1970H319q-102 0-102 102v87q0 106 102 106z"/><glyph unicode="E" d="M238 106v82q0 107 118 107h283v1970H348q-110 0-110 107v82q0 106 110 106h1987q102 0 102-102v-652q0-114-102-114h-103q-102 0-102 118v455H975v-741h561v205q0 122 98 122h90q91 0 91-122v-680q0-115-91-115h-110q-78 0-78 115v213H975V295h1155v491q0 115 119 115h82q106 0 106-110V90q0-90-102-90H356Q238 0 238 106z"/><glyph unicode="F" d="M348 2560h2003q94 0 94-102v-656q0-110-114-110h-90q-103 0-103 114v459H971v-741h557v213q0 114 86 114h94q86 0 86-110v-692q0-115-94-115h-86q-86 0-86 115v213H971V295h516q102 0 102-98v-95q0-102-102-102H344Q229 0 229 106v95l-4 4q0 90 127 90h279v1970H352q-123 0-123 102v95q0 98 119 98z"/><glyph unicode="G" d="M1950 1974q-37 127-199 244t-358 117h-41q-295 0-478-144-182-143-260-385-77-241-77-544 0-324 131-562 131-237 344-356t446-119q144 0 262 37 119 37 279 119v508h-549q-107 0-107 94v94q0 103 103 103h962q119 0 119-103v-90q0-98-114-98h-78V164q0-37-289-127t-567-90h-62q-401 0-686 163.5t-430 467T156 1274q0 360 139 673.5T700 2445q267 185 623 185h37q164 0 321-29 158-29 277-102 8-5 12-5 17 0 17 17 12 90 110 90h94q115 0 115-147v-545q0-115-102-115h-111q-94 0-143 180z"/><glyph unicode="H" d="M1860 1200H819V295h262q111 0 111-107v-82q0-106-111-106H340Q229 0 229 106v82q0 107 111 107h139v1970H340q-111 0-111 107v82q0 106 111 106h741q111 0 111-106v-82q0-107-111-107H819v-774h1041v774h-267q-106 0-106 107v82q0 106 106 106h746q110 0 110-106v-82q0-107-110-107h-139V295h139q110 0 110-107v-82q0-106-110-106h-746q-106 0-106 106v82q0 107 106 107h267v905z"/><glyph unicode="I" d="M2142 0H541Q430 0 430 106v82q0 107 111 107h630v1970H541q-111 0-111 107v82q0 106 111 106h1601q107 0 107-106v-82q0-107-111-107h-631V295h631q111 0 111-107v-82q0-106-107-106z"/><glyph unicode="J" d="M1028-53q-233 0-534 98T193 250v770q0 74 73 74h131q90 0 90-131V725q0-213 166-358.5T1032 221h8q279 0 426 150 148 149 148 395v8l-4 1491H881q-111 0-111 107v82q0 106 111 106h1495q106 0 106-106v-82q0-107-110-107h-422V676q0-221-103-387-102-166-305-254t-481-88h-33z"/><glyph unicode="K" d="M2097 0q-94 0-131 139l-295 537q-143 254-260 377t-301 147L877 963V295h262q110 0 110-107v-82q0-106-102-106H270Q160 0 160 102v82q0 111 106 111h275v1970H266q-110 0-110 107v82q0 106 110 106h873q110 0 110-106v-82q0-107-106-107H877v-893l897 893h-164q-111 0-111 107v82q0 106 111 106h725q110 0 110-106v-82q0-107-110-107h-140l-843-823q135-21 280-150 146-129 223-280l410-717h143q111 0 111-107v-82q0-106-106-106h-316z"/><glyph unicode="L" d="M2191 1012q0 110 99 110h106q103 0 103-106V102q0-102-103-102H283Q176 0 176 106v82q0 107 111 107h409v1970H287q-111 0-111 107v82q0 106 107 106h1269q103 0 103-106v-82q0-107-111-107h-508V295h1155v717z"/><glyph unicode="M" d="M254 2560h508q86 0 147-172l451-1344 450 1364q50 152 148 152h528q107 0 107-102v-82q0-111-119-111h-119V295h172q111 0 111-107v-82q0-106-111-106h-741q-107 0-107 102v82q0 111 107 111h233v1835L1561 885q0-123-131-123h-152q-139 0-139 123L659 2146V295h275q110 0 110-111v-82Q1044 0 938 0H147Q41 0 41 102v82q0 111 106 111h177v1970H205q-111 0-111 107v82q0 106 111 106h49z"/><glyph unicode="N" d="M238 2560h544q74 0 119-82L2011 549v1716h-323q-136 0-136 107v86q0 102 119 102h770q115 0 115-98v-90q0-107-123-107h-127V20q0-49-53-49h-242L782 2073V295h373q119 0 119-90v-94q0-111-119-111H344Q225 0 225 102v95q0 98 119 98h143v1970H242q-123 0-123 107v90q0 98 119 98z"/><glyph unicode="O" d="M1339 238q246 0 424 118 179 119 269 358.5t90 579.5q0 287-78 524.5t-256 381-449 143.5q-270 0-448-143.5t-260-383-82-522.5q0-340 92-577.5T911 358q179-120 428-120zm0-291q-360 0-628.5 180T303 616q-139 310-139 674 0 332 123 641 123 310 389 506 266 197 663 197 402 0 666-197 264-196 385-506 121-309 121-641 0-368-137-676-138-307-404-487T1339-53z"/><glyph unicode="P" d="M1573 963H999V295h512q119 0 119-90V102q0-102-114-102H348Q229 0 229 98v99q0 98 115 98h320v1970H352q-127 0-127 86l4 8v103q0 98 119 98h1225q217 0 424-100.5t332-282.5 125-403q0-226-125-414.5T1999 1067t-426-104zm-17 299q201 0 355 149 153 150 153 350 0 201-153.5 352.5T1556 2265H999V1262h557z"/><glyph unicode="Q" d="M1343 2343q-270 0-448-143.5t-258-383-80-522.5q0-340 90-579.5T915 356q179-118 424-118 246 0 422 118 176 119 266.5 358.5T2118 1294q0 287-78 524.5t-252 381-445 143.5zm1168-1061v-33q0-348-137.5-647T1970 125 1343-53h-151L983-262q102 37 234 61 131 25 229 25 90 0 295-53 205-50 270-50h25q45 0 114 37 70 37 86 37h82q103 0 103-114 0-132-127-185t-287-53q-115 0-360 70-250 69-373 69-119 0-303-82-185-78-209-78h-12q-95 46-111 99-21 8-21 65 0 41 25 54L987-8Q860 4 663.5 149.5T315 584q-151 288-151 698 0 340 121 649 121 310 389 506 268 197 669 197 402 0 666-197 264-196 383-506 119-309 119-649z"/><glyph unicode="R" d="M1872 1831q0 172-135 303t-307 131H831v-876h570q184 0 327.5 126.5T1872 1831zM217 2560h1274q192 0 368.5-98.5T2140 2195q105-167 105-360 0-287-154-457t-453-231q82-12 181-172l479-680h151q123 0 123-90v-99q0-106-123-106h-319q-74 0-193 184l-421 627q-78 119-166 201t-174 82H827V295h242q127 0 127-94v-95q0-106-127-106H221Q106 0 106 102v86q0 107 119 107h262v1970H225q-119 0-119 102v91q0 102 111 102z"/><glyph unicode="S" d="M1999 684v33q0 127-84 231-84 105-236 129l-684 123q-303 53-450.5 219T397 1847q0 238 131 418t340 274.5 430 94.5h41q156 0 299-25 144-24 267-98 0 106 77 106h127q111 0 111-118l25-582q0-98-74-98h-131q-41 0-119 127-70 249-229.5 317t-348.5 72h-20q-221 0-393-123t-172-328q0-131 82-229.5t217-118.5l712-115q259-37 420-217 162-180 162-450v-9q0-299-149.5-479T1825 16q-228-69-482-69-167 0-339.5 41T725 102Q721-70 623-70H463q-103 0-103 172l-28 582-4 12q0 176 147 176h90q103 0 111-135 16-196 223-352t494-156q241 0 423.5 98.5T1999 684z"/><glyph unicode="T" d="M238 2458q0 102 90 102h2023q90 0 90-102l25-906q0-114-115-114h-82q-119 0-119 114l-20 713h-623V295h484q110 0 110-107v-82q0-106-102-106H680Q578 0 578 106v82q0 107 110 107h483v1970H549l-21-713q0-114-118-114h-82q-115 0-115 114z"/><glyph unicode="U" d="M1339 238q226 0 408 170t182 387v1470h-274q-111 0-111 107v82q0 106 111 106h753q111 0 111-106v-82q0-107-111-107h-139V791q0-222-100.5-416.5T1868 63Q1667-53 1397-53h-115q-270 0-469 116-199 117-301 313.5T410 791v1474H266q-110 0-110 107v82q0 106 110 106h758q111 0 111-106v-82q0-107-111-107H750V795q0-217 182-387t407-170z"/><glyph unicode="V" d="M1339 356l717 1909h-319q-111 0-111 107v82q0 106 111 106h786q111 0 111-106v-82q0-107-111-107h-102L1565 37q-33-90-135-90h-181q-102 0-135 90L258 2265H156q-111 0-111 107v82q0 106 111 106h786q111 0 111-106v-82q0-107-111-107H623z"/><glyph unicode="W" d="M913 74Q897 0 848 0H606q-53 0-65 74L221 2265h-78q-110 0-110 111v82q0 102 106 102h807q107 0 107-106v-82q0-107-111-107H553L786 565l369 1295q0 94 111 94h147q111 0 111-94l368-1295 234 1700h-389q-111 0-111 107v82q0 106 107 106h807q106 0 106-102v-82q0-111-111-111h-77L2138 74q-12-74-65-74h-242q-45 0-66 74l-426 1482z"/><glyph unicode="X" d="M1339 1065L791 295h221q106 0 106-111v-82q0-102-106-102H307Q201 0 201 111v82q0 102 106 102h66l745 1012-692 958h-57q-111 0-111 115v82q0 98 111 98h622q111 0 111-102v-82q0-111-111-111H848l491-700 492 700h-143q-111 0-111 111v82q0 102 111 102h618q111 0 111-98v-82q0-115-111-115h-53l-692-958 745-1012h66q106 0 106-102v-82q0-111-106-111h-705q-106 0-106 102v82q0 111 106 111h221z"/><glyph unicode="Y" d="M696 0Q586 0 586 102v82q0 111 106 111h471v725L442 2261H295q-115 0-115 111v82q0 106 111 106h745q111 0 111-111v-82q0-106-111-106H831l529-946 487 946h-205q-110 0-110 106v82q0 111 110 111h746q111 0 111-106v-82q0-111-115-111h-148l-720-1241V295h471q106 0 106-111v-82q0-102-111-102H696z"/><glyph unicode="Z" d="M668 2560h1409q151 0 151-156v-16q0-49-20-111L877 295h995l24 647q0 123 119 123h78q119 0 119-143l-33-799q0-123-102-123H598Q446 0 446 156q0 102 25 159l1319 1950H877l-25-590q0-119-78-119H631q-86 0-86 123l20 754q0 127 103 127z"/><glyph unicode="[" d="M1008 2560h675q91 0 91-74v-102q0-86-91-86h-409V-532h409q91 0 91-86v-103q0-74-91-74h-675q-103 0-103 103v3150q0 102 103 102z"/><glyph unicode="\" d="M602 3092h66q73 0 114-102L2187-25q8-32 8-57 0-147-102-147v-4h-90q-61 0-90 61L496 2871q-13 37-13 49 0 172 119 172z"/><glyph unicode="]" d="M1774 2458V-692q0-103-103-103H995q-90 0-90 74v103q0 86 90 86h410v2830H995q-90 0-90 86v102q0 74 90 74h676q103 0 103-102z"/><glyph unicode="^" d="M717 1987h-70q-57 4-74 61-8 12-8 45 0 45 33 98l590 750q37 49 94 49h115q57 0 90-49l594-750q28-53 28-98 0-33-8-45-12-57-69-61h-70l-623 622z"/><glyph unicode="_" d="M0 0h2679v-352H0V0z"/><glyph unicode="`" d="M1495 1581q0-86-53-98H975q-41 4-41 37 0 28 24 69l480 1000q37 73 86 73 16 0 37-8l131-74q37-20 37-69 0-21-9-70z"/><glyph unicode="a" d="M594 618q0-159 137-251.5t305-92.5q185 0 424 119 240 119 289 303v279q-180 74-365 74h-98q-270 0-481-97-211-96-211-334zm1192-364l-25 25Q1524 74 1360 16q-164-57-397-57h-41q-312 0-506 182-195 183-195 473v9q0 155 84 317t311 277q228 114 617 114 123 0 321-24 199-25 199-37v86q0 221-156 313-155 92-315 92h-8q-213 0-389-90t-258-90q-123 0-148 102-12 25-12 62 0 57 37 98 176 127 346 162t407 35h58q254 0 430-76t262-217 86-326V324h242q110 0 110-103V111q0-111-110-111h-434q-119 0-119 168z"/><glyph unicode="b" d="M1466 274q287 0 481.5 201T2146 975v8q0 197-78 367-77 170-231 270t-362 100q-185 0-338.5-86T893 1382q-90-165-90-387v-16q0-315 180-510t471-195h12zM274 2826h455q70 0 70-78V1745l20-12q90 127 241.5 217t377.5 90h57q303 0 537-144 233-143 356-385 123-241 123-516 0-303-133-542.5T2011 84Q1778-45 1491-45q-242 0-432.5 92T823 266l-20-12V61q0-61-58-61H274Q164 0 164 106v82q0 107 102 107h197v2236H279q-115 0-115 111v82q0 102 110 102z"/><glyph unicode="c" d="M2154 618q5 0 33 5 33 4 58 4 82 0 118-62 25-24 25-73 0-62-66-156-127-135-380.5-256T1339-41q-274 0-518 125-243 125-389 358-145 234-145 537 0 287 123 530 122 244 366 387 244 144 580 144 184 0 341.5-35t346.5-141v49q0 98 123 98h86q119 0 119-131v-573q0-107-86-107h-144q-57 0-82 82-114 205-266 319.5T1393 1716q-201 0-371-94t-268.5-260T655 995q0-184 88-352t252-266 369-98q201 0 381 73 180 74 348 238z"/><glyph unicode="d" d="M1880 979v25q0 225-90 388.5T1544 1638q-155 82-340 82-209 0-360.5-96T612 1356t-80-381q0-303 184.5-502T1192 274q295 0 489 197 195 197 199 508zm336 1769V295h192q103 0 103-107v-82q0-106-107-106h-495q-58 0-58 61v193l-20 12q-82-114-262-213-180-98-434-98-287 0-508 129T285 450.5 164 995q0 279 127 518 127 240 371 383 243 144 575 144 225 0 378.5-90t244.5-217l20 12v786h-291q-114 0-114 111v82q0 102 110 102h561q70 0 70-78z"/><glyph unicode="e" d="M1327-41h-41q-254 0-491.5 92T401 373Q246 602 246 975q0 274 108 518 109 244 361 395 252 152 641 152 405 0 647-168t334-371 92-317v-160q0-135-143-135H614v-37q0-78 43-209t213-256 502-125q209 0 496 131 291 131 409 131h25q115-4 115-106v-62q0-90-111-147Q1978 37 1794-2t-467-39zm705 1225v49q0 151-179 332-178 180-469 180h-12q-393 0-567-199-174-198-174-321v-41h1401z"/><glyph unicode="f" d="M487 1999h410v250q0 225 129 354t340 178 477 49q201 0 328-43t127-116v-66q0-123-131-123-8 4-13 4-16 0-200 25-189 20-230 20h-32q-193 0-324-73.5T1237 2220v-221h831q111 0 111-107v-86q0-106-111-106h-819V295h779q106 0 106-111v-82q0-102-106-102H487Q377 0 377 106v82q0 107 110 107h422v1405H483q-106 0-106 110v86q0 103 110 103z"/><glyph unicode="g" d="M1831 1065q0 303-166 463t-485 160h-9q-286 0-448-177-162-176-162-479 0-270 176-450.5T1192 401q274 0 456.5 160t182.5 492v12zM1167-856h-135q-151 0-250 43-98 43-102 170 0 135 205 135 57 0 217-16 160-13 176-13h25q229 0 374 160 146 160 146 361v372l-29 17q-94-127-248-209-153-82-395-82-270 0-479 118.5T350 535q-112 215-112 485 0 332 127 555t340 325.5 458 102.5q226 0 389-72 164-71 238-174l33 37v148q0 53 49 57h455q110 0 110-103v-86q0-106-102-106h-193V-139q0-234-133-398-133-163-358.5-241T1167-856z"/><glyph unicode="h" d="M319 2826h459q66 0 66-57V1761h12q0 29 196.5 154t401.5 125h8q328 0 520-197 193-196 193-467V295h184q111 0 111-107V98q0-98-107-98h-700q-111 0-111 106v91q0 98 115 98h164v1036q0 131-123 258t-315 127h-9q-192-4-366-153.5T844 1307V295h188q107 0 107-111v-82q0-102-111-102H319Q209 0 209 102v82q0 111 110 111h185v2236H324q-115 0-115 103v82q0 110 110 110z"/><glyph unicode="i" d="M1421 1999q70 0 70-86V295h754q106 0 106-102v-87q0-106-106-106H438Q328 0 328 102v95q0 98 110 98h717v1405H672q-107 0-107 110v95q0 45 107 94h749zm-200 975h192q123 0 123-148v-258q0-155-119-155h-213q-123 0-123 147v266q0 148 140 148z"/><glyph unicode="j" d="M725 1999h1249q111 0 111-103V-53q0-332-176-510t-402-234q-225-55-430-55-237 0-350 49T614-643q0 139 209 139 74 0 188.5-16.5T1171-537h29q258 0 403.5 156T1749-16v1716H725q-131 0-131 110v86q0 103 131 103zm1212 827v-258q0-155-118-155h-213q-119 0-119 147v266q0 148 135 148h193q122 0 122-148z"/><glyph unicode="k" d="M295 2826h541q65 0 65-69V1180l623 532q-135 0-135 103v81q0 103 110 103h717q102 0 102-107v-86q0-106-110-106h-107q-98 0-225-70-195-106-195-110 5 0 80 36l-434-372 815-889h250q111 0 111-107v-82q0-106-111-106h-721q-102 0-102 90v74q0 61 82 102 65 35 75 35 3 0 3-2l-635 688-193-172V119Q901 0 803 0H307Q197 0 197 102v82q0 111 110 111h258v2236H295q-111 0-111 107v82q0 106 111 106z"/><glyph unicode="l" d="M578 2826h847q62 0 62-57V295h717q106 0 106-107v-82q0-106-106-106H471Q360 0 360 106v82q0 107 111 107h680v2236H578q-111 0-111 111v82q0 102 111 102z"/><glyph unicode="m" d="M1446 1794q82 143 190 195 109 51 260 51 336 0 434.5-170t106.5-367V295h139q103 0 103-102v-82q0-111-107-111h-323q-131 0-131 135v1299q0 94-76 196-76 103-199 103-131 0-219-103-88-102-88-180V295h156q106 0 106-107v-82q0-106-102-106h-410q-86 0-86 119v1315q0 94-76 196-75 103-198 103-131 0-217-103-86-102-86-180V295h168q110 0 110-107v-82Q901 0 791 0H111Q0 0 0 106v82q0 107 111 107h172v1405H115Q0 1700 0 1810v86q0 103 111 103h454q58 0 58-62l-9-57 21-4q45 66 135 115t250 49q184 0 280-70 97-69 125-180z"/><glyph unicode="n" d="M1393 1716q-176 0-355-131-178-131-194-319V295h184q111 0 111-107v-82q0-106-111-106H319Q209 0 209 106v82q0 107 110 107h185v1409H344q-135 0-135 119v73q0 103 119 103h454q49-4 62-62v-159l16-21q119 144 275 207 155 64 327 64 320 0 516-191 197-190 197-453V295h188q107 0 107-102v-82q0-111-111-111h-692q-115 0-115 106v82q0 107 111 107h168v995q0 189-127 307-127 119-311 119z"/><glyph unicode="o" d="M209 995q0 246 110 488 111 241 367 399t657 158q398 0 652-160t364-399q111-240 111-477v-9q0-295-129-530.5T1956 94 1348-41Q975-41 719 94T338 464.5 209 995zm369 13q0-217 94-392 94-174 268-268t403-94q226 0 400 94t266 268q92 175 92 392 0 196-94 366t-268 270.5-396 100.5h-12q-229 0-401-96.5T668 1382t-90-374z"/><glyph unicode="p" d="M279-561h184v2261H266q-102 0-102 106v86q0 107 110 107h471q54 0 54-62v-208l12-13q82 111 268 201 187 90 408 90 282 0 518-129t371-360.5T2511 999v-12q0-328-135-551t-369-332Q1774-4 1491-4q-197 0-406 96-208 96-274 207l-12-25v-835h573q107 0 107-107v-86q0-102-115-102H270q-106 0-106 102v86q0 107 115 107zm1183 2249q-299 0-489.5-197T782 1016q0-213 88-375t246-246 359-84q303 0 485 192.5T2142 991v13q-4 307-196 495-193 189-484 189z"/><glyph unicode="q" d="M2216-561h184q111 0 111-107v-86q0-102-103-102H1315q-115 0-115 102v86q0 107 107 107h573v835l-12 25q-66-111-277-207T1184-4Q905-4 670 104 434 213 297 436T160 979l4 20q0 287 137 520.5T673.5 1880t518.5 127q205 0 393-92 189-92 283-199l12 13v208q0 62 53 62h471q107 0 107-107v-86q0-106-103-106h-192V-561zM532 1004v-13q0-295 184.5-487.5T1204 311q201 0 358.5 84T1808 641t88 375q0 262-190 467t-477 205q-295 0-496-191-201-190-201-493z"/><glyph unicode="r" d="M434 1999h627q57 0 57-62v-368l25-8q172 249 379 364t460 115q193 0 328-51.5t135-202.5q0-201-184-201-78 0-176 70-98 65-217 65-185 0-350.5-129T1118 1196V295h762q107 0 107-107v-82q0-106-111-106H336Q229 0 229 106v82q0 107 111 107h438v1405H434q-110 0-110 106v86q0 107 110 107z"/><glyph unicode="s" d="M721 565q70-172 291-258t426-86q188 0 348 86t160 258-148 234q-147 61-364 61h-111q-233 0-430 37t-336 162-139 366v5q0 233 127 370t315 189q189 51 393 51 140 0 285-19 145-18 256-67 16-8 25-8 20 0 73 41 54 41 115 41 143 0 143-103v-483q0-94-114-94-62 0-267 217-204 213-516 213-245 0-374-88t-129-240q0-156 172-213t385-57h147q217 0 395-43 179-43 299-176 121-134 121-379 0-238-117-377-116-139-307-193-190-53-428-53-139 0-327 37-254 45-320 53-98-98-180-98h-25Q410-49 410 98v492q0 119 155 119 94 0 156-144z"/><glyph unicode="t" d="M2023 1999q119 0 119-115v-110q0-99-119-99h-929V618q0-135 133-239.5T1503 274q176 0 451 123 270 119 327 119h5q168 0 168-143 0-115-162-211T1898 10q-231-55-407-55-266 0-432 100-166 101-234 246-67 145-67 293v1081H344q-119 0-119 107v106q0 111 115 111h418v561q0 119 114 119h103q119 0 119-123v-557h929z"/><glyph unicode="u" d="M2195 295h160q135 0 135-98v-95q0-102-114-102h-447q-74 0-74 57v152l-8 24Q1704 90 1544 24.5T1204-41h-12q-315 0-514 162T479 561v1139H291q-107 0-107 102v86q0 111 107 111h442q86 0 86-90V692q0-184 125-309t338-125q258 0 415.5 155.5T1855 713v987h-339q-107 0-107 98v86q0 115 111 115h573q102 0 102-98V295z"/><glyph unicode="v" d="M217 1999h758q102 0 102-111v-86q0-102-106-102H750l561-1376 622 1376h-299q-110 0-110 102v86q0 111 110 111h828q110 0 110-111v-86q0-102-114-102h-164L1524 49q-37-90-152-90h-131q-106 0-139 86L344 1700H217q-111 0-111 106v86q0 107 111 107z"/><glyph unicode="w" d="M197 1704h-91Q0 1704 0 1815v81q0 103 106 103h734q110 0 110-107v-86q0-102-119-102H537L893 414l278 954q21 123 119 123h131q86 0 127-127l279-950 348 1286h-283q-118 0-118 102v86q0 111 106 111h684q111 0 111-111v-86q0-102-107-102h-69L2011 74q-24-115-115-115h-122q-95 0-136 127l-299 995-262-966Q1032-41 934-41H815q-94 0-131 123z"/><glyph unicode="x" d="M336 1999h708q111 0 111-111v-86q0-102-111-102H909l459-459 442 459h-176q-110 0-110 102v86q0 111 110 111h713q107 0 107-111v-86q0-102-115-102h-168l-615-656 750-749h90q103 0 103-107v-82q0-106-111-106h-713q-110 0-110 106v82q0 107 110 107h213l-536 528-496-528h176q111 0 111-107v-82q0-106-111-106H287Q176 0 176 102v82q0 111 111 111h168l700 725-680 680H336q-111 0-111 102v86q0 111 111 111z"/><glyph unicode="y" d="M254 1999h766q110 0 110-111v-86q0-102-110-102H795l581-1200 582 1200h-229q-115 0-115 102v86q0 111 110 111h701q110 0 110-111v-86q0-102-110-102h-94L1200-561h234q110 0 110-107v-82q0-106-110-106H311q-110 0-110 106v82q0 107 110 107h516l365 700-795 1561H254q-111 0-111 102v86q0 111 111 111z"/><glyph unicode="z" d="M664 1999h1396q176 0 176-164v-102q0-74-73-144L860 295h1069v291q0 123 103 123h102q102 0 102-127V115q0-115-143-115H590Q438 0 438 135v94q0 70 54 123l1323 1348H774v-279q0-135-86-135H582q-115 0-115 119v459q0 135 197 135z"/><glyph unicode="{" d="M1192 889v-29q156-8 266-162 111-153 111-333l4-582q0-135 108-205 109-70 232-70h12q131 0 131-110l-4-98q0-111-115-111h-168q-245 0-405 168t-160 438v492q0 135-63.5 253.5T852 688q-221 21-229 131v107q12 114 225 135 225 29 289 147 63 119 63 254v492q0 270 160 438t405 168h168q115 0 115-111l4-98q0-110-131-110h-12q-123 0-232-70-108-70-108-205v-582q0-180-111-333-110-154-266-162z"/><glyph unicode="|" d="M1155 3391q0 87 123 87h123q119 0 119-87v-4452q0-90-119-90h-123q-123 0-123 90v4452z"/><glyph unicode="}" d="M1114 1384l-4 582q0 135-111 205-110 70-233 70h-8q-131 0-131 110l4 98q0 111 114 111h168q246 0 406-168t160-438v-492q0-135 63-254 64-118 289-147 213-21 225-135V819q-8-110-229-131-225-29-289-147-63-119-63-254v-492q0-270-160-438T909-811H741q-114 0-114 111l-4 98q0 110 131 110h8q123 0 235 70 113 70 113 205v582q0 180 111 333 110 154 266 162v29q-156 8-264.5 161.5T1114 1384z"/><glyph unicode="~" d="M360 2392l-4 4q0 139 149.5 286.5T975 2830q344 0 368-49 95-37 234-61.5t246-24.5q119 0 205 86 86 111 159 111 127 0 127-99v-8q0-143-147.5-288.5T1696 2351q-193 0-353 53-94 37-243.5 61.5T852 2490q-119 0-205-86-86-110-160-110-127 0-127 98z"/><glyph/><glyph unicode="¡" d="M954 3269q21-119 139.5-191t245.5-72 244 72 141 191q17 106 82 106h127q70 0 70-78v-78q0-155-150-329-149-174-510-178-364 4-518 178-153 174-153 329v78q0 78 73 78h127q66 0 82-106zm-737-709h819q111 0 111-106v-82q0-107-111-107H786l590-1204 541 1204h-209q-111 0-111 107v82q0 106 111 106h746q110 0 110-106v-82q0-107-110-107l-201-4-856-1896q-111-254-248-330T831-41H614Q508-41 508 70v114q0 111 90 111h229q127 0 231.5 116.5T1163 651v78L422 2265H221q-110 0-110 107v82q0 106 106 106z"/><glyph unicode="¢" d="M1004 2712q12-78 100-154t219-76q4 0 12 4h17l8-4q131 0 217 76t98 154q21 114 82 114h135q66 0 66-98 0-131-139.5-309T1339 2236q-340 5-479 183t-139 309q0 98 65 98h136q61 0 82-114zm-750-713h766q110 0 110-111v-86q0-102-110-102H795l581-1200 582 1200h-229q-115 0-115 102v86q0 111 110 111h701q110 0 110-111v-86q0-102-110-102h-94L1200-561h234q110 0 110-107v-82q0-106-110-106H311q-110 0-110 106v82q0 107 110 107h516l365 700-795 1561H254q-111 0-111 102v86q0 111 111 111z"/><glyph unicode="£" horiz-adv-x="2679" d="M0 0v2679h2679V0H0z"/><glyph unicode="¤" horiz-adv-x="2679" d="M0 0v2679h2679V0H0z"/><glyph unicode="¥" d="M2134 2560v541q0 118 102 118h91q114 0 114-114v-754q0-86-98-86H1012V295h475q102 0 102-98v-95q0-102-102-102H344Q225 0 225 106v99q0 90 127 90h320v1970H352q-123 0-123 102v95q0 98 119 98h1786z"/><glyph unicode="¦" horiz-adv-x="2679" d="M0 0v2679h2679V0H0z"/><glyph unicode="§" horiz-adv-x="2666" d="M930 1409q-49 12-94 12-140 0-140-106l4-4q0-123 205-250l881-565q119-70 180-70 98 0 98 131 0 78-49 131t-200 152zM2077 70V49q0-180-176.5-307T1581-385H692q-106 0-106 82v422q0 114 86 114h159q74 0 74-114v-250h586q225 0 238 176v25q0 118-95 180L684 836q-160 98-215 196t-59 279q0 155 114 276 115 121 254 121h17l-25 143v50q0 172 127 274t287 102h897q106 0 106-98v-446q0-91-69-91h-148q-74 0-74 95v282h-606q-233 0-233-164 0-176 106-241l914-582q196-160 245-260 50-100 50-244 0-143-80-233t-224-119z"/><glyph unicode="¨" d="M1016 3277q127 0 198-78 72-78 72-193 0-114-69.5-192t-200.5-78-205 78-74 192q0 115 74 193t205 78zm835 0q127 0 199-78t72-193q0-114-70-192t-201-78-204.5 78-73.5 192q0 115 73.5 193t204.5 78zM238 106v82q0 107 118 107h283v1970H348q-110 0-110 107v82q0 106 110 106h1987q102 0 102-102v-652q0-114-102-114h-103q-102 0-102 118v455H975v-741h561v205q0 122 98 122h90q91 0 91-122v-680q0-115-91-115h-110q-78 0-78 115v213H975V295h1155v491q0 115 119 115h82q106 0 106-110V90q0-90-102-90H356Q238 0 238 106z"/><glyph unicode="©" d="M1298 2421q-266 0-493-144-227-143-356-387-130-243-130-514 0-266 133.5-497.5T815 514t500-133q270 0 501.5 137T2181 890.5t133 506.5q0 262-135 501-135 240-369 381-233 142-499 142h-13zm9 192q319 0 598-164 278-163 442-444t164-604q0-316-158-598.5T1918.5 352 1311 184q-316 0-592.5 162T281 788q-162 281-162 601v4q0 319 155 604 156 284 430.5 450t593.5 166h9zm540-938q-16-90-114-90-111 0-127 90-17 94-93 185-75 90-210 90-205 0-318-158t-113-403v-21q0-188 127-352t312-164q159 0 348 139 37 33 86 33h8q74 0 102-49 25-33 25-86 0-25-8-45-57-90-240-166-182-76-342-76-213 0-372.5 108.5T674 1001q-84 183-84 400 0 201 77.5 377T903 2062q158 109 379 109 123 0 201-41 86-41 123-41 28 0 52.5 24.5t90.5 28.5q98 0 98-78v-389z"/><glyph unicode="ª" horiz-adv-x="2724" d="M582 1257l-4-36q0-238 108-455 109-217 299-348 191-131 408-131 159 0 390.5 79.5T2118 545q57 49 159 49 131-16 140-107v-28l-21-107q-143-176-432-291-289-114-567-114-348 0-625 182-276 182-426 487-149 306-149 646l4 12q4 348 147 668 144 319 418 513.5t639 194.5q151 0 313-39t285-112q8-5 12-5 17 0 17 17 12 94 110 94h111q106 0 106-151v-693q0-90-118-90h-87l-8-4q-143 0-143 197l4 12q-4 213-180 342t-430 129q-189 0-375-115-186-114-301-307-115-192-115-405h676v204q0 123 90 123h107q82 0 82-123v-692q0-102-74-102h-115q-90 0-90 106v221H582z"/><glyph unicode="«" d="M942 1622q29 61 115 61 37 0 53-12 78-45 78-110 0-21-8-54L893 958l287-548 4-41q0-95-82-123-49-21-78-21-74 0-98 45L594 950zm672-4q28 61 115 61 40 0 57-12 78-49 78-111 0-28-13-53l-282-549 282-548q9-17 9-41 0-91-82-123-49-21-82-21-74 0-99 45l-327 680z"/><glyph unicode="¬" horiz-adv-x="2679" d="M0 0v2679h2679V0H0z"/><glyph unicode="­" d="M2232 782H451q-99 0-99 82v160q0 86 103 86h1765q107 0 107-86V868q0-86-95-86z"/><glyph unicode="®" d="M1286 2421q-266 0-495-144-230-143-361-385-131-241-131-508 4-4 4-8 0-266 133-497.5T800.5 514 1303 381q270 0 501 137 232 137 367 372.5t135 506.5q0 262-137 501-137 240-371 381-233 142-500 142h-12zm8 192q320 0 600-162 281-161 447-442 166-280 166-600l-4-8q0-316-158-598.5T1908.5 352 1298 184q-315 0-591.5 162T268 788q-162 281-162 601v4q0 319 156 603.5T692 2447q275 166 594 166h8zm-151-717v-389h217q168 0 168 193 0 196-152 196h-233zm-393 222h659q193 0 279-123t86-291q0-152-68-256.5T1524 1323q78-78 133-154 55-75 141-219h86q58 0 58-110 0-115-58-115h-246q-127 213-217 342t-196 215h-86V950h131q45 0 53-110 0-115-57-115H750q-58 0-58 106 0 119 58 119h135v951H750q-54 0-58 106 0 111 58 111z"/><glyph unicode="¯" d="M954 3285q127 0 199-78t72-192q0-115-70-193t-201-78-206.5 78-75.5 193q0 114 75.5 192t206.5 78zm836 0q127 0 198.5-78t71.5-192q0-115-69.5-193t-200.5-78-207 78-76 193q0 114 76 192t207 78zM2142 0H541Q430 0 430 106v82q0 107 111 107h630v1970H541q-111 0-111 107v82q0 106 111 106h1601q107 0 107-106v-82q0-107-111-107h-631V295h631q111 0 111-107v-82q0-106-107-106z"/><glyph unicode="°" d="M1176 2458q-156 0-248-105-92-104-92-248 0-143 90-243.5t258-100.5q172 0 258 100.5t86 252.5q0 143-98 243-99 101-254 101zm0 307q282 0 473-195 190-194 190-465 0-274-182-465-182-190-486-190-286 0-462 192-177 193-177 463 0 267 183 463 182 197 461 197z"/><glyph unicode="±" horiz-adv-x="2679" d="M0 0v2679h2679V0H0z"/><glyph unicode="²" horiz-adv-x="2679" d="M0 0v2679h2679V0H0z"/><glyph unicode="³" horiz-adv-x="2679" d="M0 0v2679h2679V0H0z"/><glyph unicode="´" horiz-adv-x="2679" d="M0 0v2679h2679V0H0z"/><glyph unicode="µ" d="M291 1999h1884v491q0 148 102 148h103q102 0 102-148v-680q0-110-143-110H1094V295h450q111 0 111-107v-82q0-106-111-106H287Q176 0 176 106v82q0 107 111 107h471v1405H299q-119 0-119 102v86q0 111 111 111z"/><glyph unicode="¶" horiz-adv-x="2662" d="M1307 2568h999q82 0 82-135 0-139-86-139h-221V-20h295q65 0 65-136 0-139-57-139h-557v2589h-225V-295H860q-90 0-90 139 0 136 86 136h508v1081q-250 0-469 71.5T541 1368t-135 414q0 229 131 409 131 181 339.5 279t430.5 98z"/><glyph unicode="¸" d="M934 2859q127 0 198.5-78t71.5-192q0-115-69.5-193T934 2318t-205 78-74 193q0 114 74 192t205 78zm835 0q127 0 199-78t72-192q0-115-70-193-69-78-201-78-131 0-206.5 78t-75.5 193q0 114 75.5 192t206.5 78zM1327-41h-41q-254 0-491.5 92T401 373Q246 602 246 975q0 274 108 518 109 244 361 395 252 152 641 152 405 0 647-168t334-371 92-317v-160q0-135-143-135H614v-37q4-602 754-602 201 0 528 135 314 131 406 131h4q111-16 111-86v-74q0-90-111-147-315-164-459-193-143-28-520-57zm705 1225v49q0 147-179 328-178 180-469 184h-12q-393 0-567-199-174-198-174-321v-41h1401z"/><glyph unicode="¹" d="M2232 1630q-98 0-159.5-125t-61.5-268q0-152 57-266 58-115 164-115 107 0 156 106.5t49 254.5v40q-4 156-55 264.5T2232 1630zm-12 176q193 0 293-155.5t100-409.5q0-262-98-418-98-155-291-159l-12-5q-180 0-279 164-98 164-98 414 0 258 98 414 99 155 287 155zM1946 8q-107 0-107 103v94q0 98 107 98h528q119 0 119-90v-94q0-111-119-111h-528zM287 295v1970H176q-123 0-123 107v90q0 98 119 98h410q69 0 118-82l709-1827v1614h-123q-131 0-131 107v86q0 102 119 102h643q115 0 115-98v-90q0-107-123-107h-209V20q0-49-49-49h-267L582 1978V295h163q119 0 119-90v-94Q864 0 745 0H180Q61 0 61 102v95q0 98 119 98h107z"/><glyph unicode="º" d="M1982 590l62 28q4 0 37 4.5t53 4.5q82 0 119-62 24-24 24-73 0-70-65-156-123-135-379-256T1229-41Q954-41 712.5 84T324 442Q176 676 176 979q0 287 123 530 123 244 367 387 243 144 579 144 185 0 342-35 158-35 346-141v49q0 98 123 98h86q119 0 119-131v-573q0-107-86-107h-143q-58 0-82 82-115 205-267 320-151 114-401 114-303 0-500-149-196-150-217-371h901q119 0 119-86V991q0-73-119-73H549q0-250 209-443 209-192 495-196 209 8 385 77 177 70 344 234z"/><glyph unicode="»" d="M1667 1622l344-672-328-680q-20-45-102-45-25 0-78 21-86 33-86 123 0 16 13 41l282 548-282 549q-17 33-17 54 0 61 82 110 21 12 53 12 90 0 119-61zm-676-4l348-672-331-680q-21-45-103-45-20 0-74 21-86 32-86 123 0 16 13 41l282 548-282 549q-17 33-17 53 0 62 82 111 21 12 49 12 91 0 119-61z"/><glyph unicode="¼" horiz-adv-x="2679" d="M0 0v2679h2679V0H0z"/><glyph unicode="½" horiz-adv-x="2679" d="M0 0v2679h2679V0H0z"/><glyph unicode="¾" horiz-adv-x="2679" d="M0 0v2679h2679V0H0z"/><glyph unicode="¿" horiz-adv-x="2724" d="M721 2859q127 0 198.5-78t71.5-192q0-115-69.5-193T721 2318t-205 78-74 193q0 114 74 192t205 78zm835 0q127 0 199-78t72-192q0-115-70-193-69-78-201-78-131 0-204.5 78t-73.5 193q0 114 73.5 192t204.5 78zm-90-860q70 0 70-86V295h754q106 0 106-102v-87q0-106-106-106H479Q369 0 369 102v95q0 98 110 98h717v1405H717q-111 0-111 110v95q0 45 111 94h749z"/><glyph unicode="Â" d="M1991 1372v-24q213-29 350-207t137-400v-12q0-201-92-356.5T2124 121 1741 0H319Q209 0 209 111v82q0 102 110 102h222v1970H319q-110 0-110 107v82q0 106 110 106h1283q282 0 493-195 211-194 211-481 0-164-76-305t-239-207zM881 2265v-799h618q168 0 299 125t131 289q0 156-114 270-115 115-271 115H881zm712-1970q222 12 361 112.5T2093 733q0 185-135 311-135 127-316 127H881V295h712z"/><glyph unicode="Ê" d="M2097 0q-94 0-131 139l-295 537q-143 254-260 377t-301 147L877 963V295h262q110 0 110-107v-82q0-106-102-106H270Q160 0 160 102v82q0 111 106 111h275v1970H266q-110 0-110 107v82q0 106 110 106h873q110 0 110-106v-82q0-107-106-107H877v-893l897 893h-164q-111 0-111 107v82q0 106 111 106h725q110 0 110-106v-82q0-107-110-107h-140l-843-823q135-21 280-150 146-129 223-280l410-717h143q111 0 111-107v-82q0-106-106-106h-316z"/><glyph unicode="Ì" d="M254 2560h508q86 0 147-172l451-1344 450 1364q50 152 148 152h528q107 0 107-102v-82q0-111-119-111h-119V295h172q111 0 111-107v-82q0-106-111-106h-741q-107 0-107 102v82q0 111 107 111h233v1835L1561 885q0-123-131-123h-152q-139 0-139 123L659 2146V295h275q110 0 110-111v-82Q1044 0 938 0H147Q41 0 41 102v82q0 111 106 111h177v1970H205q-111 0-111 107v82q0 106 111 106h49z"/><glyph unicode="Í" d="M1860 1200H819V295h262q111 0 111-107v-82q0-106-111-106H340Q229 0 229 106v82q0 107 111 107h139v1970H340q-111 0-111 107v82q0 106 111 106h741q111 0 111-106v-82q0-107-111-107H819v-774h1041v774h-267q-106 0-106 107v82q0 106 106 106h746q110 0 110-106v-82q0-107-110-107h-139V295h139q110 0 110-107v-82q0-106-110-106h-746q-106 0-106 106v82q0 107 106 107h267v905z"/><glyph unicode="Î" d="M1339 238q246 0 424 118 179 119 269 358.5t90 579.5q0 287-78 524.5t-256 381-449 143.5q-270 0-448-143.5t-260-383-82-522.5q0-340 92-577.5T911 358q179-120 428-120zm0-291q-360 0-628.5 180T303 616q-139 310-139 674 0 332 123 641 123 310 389 506 266 197 663 197 402 0 666-197 264-196 385-506 121-309 121-641 0-368-137-676-138-307-404-487T1339-53z"/><glyph unicode="Ð" d="M1573 963H999V295h512q119 0 119-90V102q0-102-114-102H348Q229 0 229 98v99q0 98 115 98h320v1970H352q-127 0-127 86l4 8v103q0 98 119 98h1225q217 0 424-100.5t332-282.5 125-403q0-226-125-414.5T1999 1067t-426-104zm-17 299q201 0 355 149 153 150 153 350 0 201-153.5 352.5T1556 2265H999V1262h557z"/><glyph unicode="Ò" d="M238 2458q0 102 90 102h2023q90 0 90-102l25-906q0-114-115-114h-82q-119 0-119 114l-20 713h-623V295h484q110 0 110-107v-82q0-106-102-106H680Q578 0 578 106v82q0 107 110 107h483v1970H549l-21-713q0-114-118-114h-82q-115 0-115 114z"/><glyph unicode="ð" d="M279-561h184v2261H266q-102 0-102 106v86q0 107 110 107h471q54 0 54-62v-208l12-13q82 111 268 201 187 90 408 90 282 0 518-129t371-360.5T2511 999v-12q0-328-135-551t-369-332Q1774-4 1491-4q-197 0-406 96-208 96-274 207l-12-25v-835h573q107 0 107-107v-86q0-102-115-102H270q-106 0-106 102v86q0 107 115 107zm1183 2249q-299 0-489.5-197T782 1016q0-213 88-375t246-246 359-84q303 0 485 192.5T2142 991v13q-4 307-196 495-193 189-484 189z"/><glyph unicode="А" d="M1307 2269L889 1110h872zM795 815L602 295h316q135 0 135-102v-82Q1053 0 918 0H119Q0 0 0 111v82q0 102 119 102h147l725 1970H594q-148 0-148 107v82q0 106 148 106h852q110 0 156-152l852-2113h118q103 0 103-98v-91q0-106-103-106h-819q-111 61-111 106v82q0 107 115 107h320l-209 520H795z"/><glyph unicode="Б" d="M999 1217V295h557q185 0 347 141 161 142 161 326 0 168-149 311-150 144-346 144H999zm1373 1224v-602q0-86-103-86h-102q-103 0-103 119v393H999v-754h582q205 0 409.5-104t333.5-272q130-168 130-349 0-229-125-409T1999 98Q1794 0 1573 0H348Q229 0 229 98v103l-4 4q0 90 127 90h312v1970H344q-115 0-115 98v99q0 98 119 98h1897q127 0 127-119z"/><glyph unicode="Г" d="M2445 1655q0-115-114-115h-90q-103 0-103 119v606H1012V295h475q102 0 102-98v-95q0-102-102-102H344Q229 0 229 106v95l-4 4q0 90 127 90h320v1970H352q-123 0-123 102v95q0 98 119 98h2003q94 0 94-102v-803z"/><glyph unicode="Д" d="M1032 918q-12-189-59-375.5T848 295h1020v1970h-836V918zM414 2265q-111 0-111 107v82q0 106 111 106h1937q111 0 111-106v-82q0-107-111-107h-143V295h180q74 0 74-74v-782q0-131-90-131h-131q-91 0-91 131V0H524v-561q0-131-86-131H303q-86 0-86 131v782q0 74 74 74h139q94 0 178 219t84 424v1327H414z"/><glyph unicode="Е" d="M238 106v82q0 107 118 107h283v1970H348q-110 0-110 107v82q0 106 110 106h1987q102 0 102-102v-652q0-114-102-114h-103q-102 0-102 118v455H975v-741h561v205q0 122 98 122h90q91 0 91-122v-680q0-115-91-115h-110q-78 0-78 115v213H975V295h1155v491q0 115 119 115h82q106 0 106-110V90q0-90-102-90H356Q238 0 238 106z"/><glyph unicode="Ж" d="M1602 0h-525q-90 0-90 106v82q0 107 82 107h107v782l-177 94q-90-32-192-262-102-229-225-569L524 94Q496 0 414 0H172Q86 0 86 106v82q0 107 107 107h81q50 217 117 424 68 207 172 393 105 186 244 318l-504 831h-61q-111 0-111 111v82q0 106 111 106h454q111 0 111-106v-82q0-107-111-107h-98l532-885 46-8v893h-78q-111 0-111 107v82q0 106 111 106h483q111 0 111-106v-82q0-107-111-107h-78v-893l45 8 533 885h-99q-110 0-110 107v82q0 106 110 106h455q111 0 111-106v-82q0-111-111-111h-61l-504-831q139-132 243.5-318t172-393T2404 295h82q107 0 107-107v-82q0-106-86-106h-242q-82 0-111 94l-57 246q-123 340-225 569-103 230-193 262l-176-94V295h107q82 0 82-107v-82q0-106-90-106z"/><glyph unicode="З" d="M1339 1466q189 0 342 111 154 111 158 303v4q0 152-139 281t-361 129q-237 0-413-117t-176-322l4-4q0-118-123-118h-90q-119 0-119 73v619q0 151 98 151h139q103 0 103-168h33q86 111 233 154 148 43 324 43h8q270 0 458.5-104.5T2099 2238q92-157 92-305 0-217-110.5-370.5T1753 1356q238-49 377-221t139-398q0-233-112.5-415.5T1833 43t-485-96h-9q-274 0-575 79.5T410 279l-4 40q0 160 143 160h8l4-4q94 0 291-106 201-111 401-111h82q209 16 393.5 116.5T1913 729q0 184-156 313-155 129-373 129h-180q-102 0-102 91v114q0 90 102 90h135z"/><glyph unicode="И" d="M819 537V295h262q111 0 111-107v-82q0-106-111-106H340Q229 0 229 106v82q0 107 111 107h139v1970H340q-111 0-111 107v82q0 106 111 106h741q111 0 111-106v-82q0-107-111-107H819V913l1041 1147v205h-267q-106 0-106 107v82q0 106 106 106h746q110 0 110-106v-82q0-107-110-107h-139V295h139q110 0 110-107v-82q0-106-110-106h-746q-106 0-106 106v82q0 107 106 107h267v1376z"/><glyph unicode="Й" d="M954 3269q21-119 139.5-191t245.5-72 244 72 141 191q17 106 82 106h127q70 0 70-78v-78q0-155-150-329-149-174-510-178-364 4-518 178-153 174-153 329v78q0 78 73 78h127q66 0 82-106zM819 537V295h262q111 0 111-107v-82q0-106-111-106H340Q229 0 229 106v82q0 107 111 107h139v1970H340q-111 0-111 107v82q0 106 111 106h741q111 0 111-106v-82q0-107-111-107H819V913l1041 1147v205h-267q-106 0-106 107v82q0 106 106 106h746q110 0 110-106v-82q0-107-110-107h-139V295h139q110 0 110-107v-82q0-106-110-106h-746q-106 0-106 106v82q0 107 106 107h267v1376z"/><glyph unicode="Л" d="M455 2560h1917q110 0 110-106v-82q0-107-106-107h-144V295h140q110 0 110-107v-82q0-106-110-106h-680q-107 0-107 106v82q0 107 107 107h204v1970h-843V1024q0-127-41-369-41-241-166-454T496-12H344q-151 0-151 114v70q0 127 151 127h82q119 4 203 243.5T713 987v1278H455q-111 0-111 107v82q0 106 111 106z"/><glyph unicode="П" d="M1860 295v1970H819V295h262q111 0 111-107v-82q0-106-111-106H340Q229 0 229 106v82q0 107 111 107h139v1970H340q-111 0-111 107v82q0 106 111 106h1999q110 0 110-106v-82q0-107-110-107h-139V295h139q110 0 110-107v-82q0-106-110-106h-746q-106 0-106 106v82q0 107 106 107h267z"/><glyph unicode="С" d="M2171 1671q-156 0-156 209 0 188-155.5 323.5T1425 2339q-258 0-442-141.5T705 1810q-95-245-95-544 0-258 106.5-498t299-385T1442 238q184 0 382.5 86T2146 516q70 49 144 49h16q131 0 139-106v-8q0-86-24-95-140-180-428-295-289-114-568-114h-8q-360 0-633 178-272 178-413 485-142 308-142 668 0 356 145.5 669.5T795 2447q274 187 639 187 184 0 323-23 139-22 275-108 8-4 12-4 16 0 16 12 13 94 111 94h94q123 0 123-147v-693q0-94-119-94h-98z"/><glyph unicode="У" d="M217 2560h819q111 0 111-106v-82q0-107-111-107H786l590-1204 541 1204h-209q-111 0-111 107v82q0 106 111 106h746q110 0 110-106v-82q0-107-110-107l-201-4-856-1896q-111-254-248-330T831-41H614Q508-41 508 70v114q0 111 90 111h229q127 0 231.5 116.5T1163 651v78L422 2265H221q-110 0-110 107v82q0 106 106 106z"/><glyph unicode="Ф" d="M1171 1790h-139q-225 0-381-127-155-127-155-389 0-246 159-375 160-129 381-129h135v1020zm336 0V770h135q218 0 379 129 162 129 162 375 0 262-155.5 389T1647 1790h-140zM848 0Q737 0 737 106v74q0 107 111 107h328v200h-164q-201 0-410 82T254 833.5 115 1290q0 266 133 446.5T583.5 1997t411.5 80h181v200H848q-111 0-111 107v70q0 106 111 106h983q111 0 111-106v-70q0-107-111-107h-328v-200h180q209 0 412-80t336-260.5 133-446.5q0-274-139-456.5T2077 569t-410-82h-164V287h328q111 0 111-107v-74q0-106-111-106H848z"/><glyph unicode="Х" d="M1339 1065L791 295h221q106 0 106-111v-82q0-102-106-102H307Q201 0 201 111v82q0 102 106 102h66l745 1012-692 958h-57q-111 0-111 115v82q0 98 111 98h622q111 0 111-102v-82q0-111-111-111H848l491-700 492 700h-143q-111 0-111 111v82q0 102 111 102h618q111 0 111-98v-82q0-115-111-115h-53l-692-958 745-1012h66q106 0 106-102v-82q0-111-106-111h-705q-106 0-106 102v82q0 111 106 111h221z"/><glyph unicode="Ц" d="M1864 295v1970h-267q-110 0-110 107v82q0 106 110 106h746q111 0 111-106v-82q0-107-111-107h-139V295h139q106 0 106-102v-771q0-135-90-135h-131q-86 0-86 135V0H344Q233 0 233 106v82q0 107 111 107h139v1970H344q-111 0-111 107v82q0 106 111 106h741q111 0 111-106v-82q0-107-111-107H823V295h1041z"/><glyph unicode="Ч" d="M782 1585q0-225 246-225h819v905h-213q-110 0-110 107v82q0 106 110 106h738q110 0 110-106v-82q0-107-110-107h-185V295h180q115 0 115-102v-82q0-111-106-111h-946q-111 0-111 106v82q0 107 111 107h417v774H975q-184 0-357 160-172 160-172 344v692H303q-110 0-110 107v82q0 106 110 106h741q111 0 111-106v-82q0-107-111-107H782v-680z"/><glyph unicode="Ш" d="M1110 2560h459q94 0 94-106v-82q0-107-94-107h-74V295h459v1970h-66q-94 0-94 107v82q0 106 94 106h512q90 0 90-106v-82q0-107-94-107h-110V295h102q102 0 102-107v-82q0-106-102-106H291Q188 0 188 106v82q0 107 103 107h102v1970H283q-95 0-95 107v82q0 106 91 106h512q90 0 90-106v-82q0-107-90-107h-66V295h455v1970h-70q-94 0-94 107v82q0 106 94 106z"/><glyph unicode="Щ" d="M1569 2560q94 0 94-106v-82q0-107-94-107h-74V295h459v1970h-66q-94 0-94 107v82q0 106 94 106h512q90 0 90-106v-82q0-107-94-107h-110V295h102q102 0 102-107v-602q0-147-86-147h-135q-86 0-86 135V0H291Q188 0 188 106v82q0 107 103 107h102v1970H283q-95 0-95 107v82q0 106 91 106h512q90 0 90-106v-82q0-107-90-107h-66V295h455v1970h-70q-94 0-94 107v82q0 106 94 106h459z"/><glyph unicode="Ъ" d="M1655 1298h-369V303h365q213 0 360 131 148 131 148 369 0 221-148 358-147 137-356 137zM1667 0H680Q565 0 565 106v103l-4 4q0 90 123 90h266v1966H446v-684q0-135-90-135H225q-90 0-90 135v840q0 135 115 135h1585q115 0 115-102v-103q0-86-123-86h-541v-672h381q221 0 426-100t330-287q125-186 125-419 0-246-125-426.5T2095 92 1667 0z"/><glyph unicode="Ы" d="M807 295q237 0 405 118.5T1380 791q0 270-166 389-165 118-407 118h-86V295h86zm1012 1970q-111 0-111 107v82q0 106 107 106h593q111 0 111-106v-82q0-107-111-107h-110V295h110q111 0 111-107v-82q0-106-111-106h-589q-111 0-111 106v82q0 107 111 107h139v1970h-139zM279 295h98v1970h-98q-111 0-111 107v82q0 106 111 106h790q111 0 111-102v-82q0-111-111-111H717v-668h74q278 0 501-94 224-94 348-280 125-187 125-441 0-258-131-436T1288 84 836 0H279Q168 0 168 106v82q0 107 111 107z"/><glyph unicode="Ь" d="M1577 1597q221 0 426-104t330-293q125-188 125-414 0-221-125-403t-332-283Q1794 0 1577 0H352Q233 0 233 98v103l-4 4q0 90 127 90h312v1970H348q-115 0-115 98v99q0 98 119 98h1168q114 0 114-102v-103q0-90-118-90h-512v-668h573zm-16-299h-557V295h557q200 0 354 151 153 152 153 353 0 200-153.5 349.5T1561 1298z"/><glyph unicode="Э" d="M2068 1262h-700v-222q0-106-86-106h-115q-77 0-77 102v693q0 122 86 122h106q86 0 86-122v-205h700q0 176-122 372-123 197-316 326-192 129-377 129-254 0-430-129t-180-342v-12q0-197-143-197l-4 4h-86q-119 0-119 90v693q0 151 106 151h111q98 0 110-98 0-12 13-12 4 0 16 4 123 73 287 112t311 39q373 0 647-172 275-172 416-485.5t141-718.5v-12q0-340-149.5-645.5T1876 133 1253-49q-184 0-381 57-196 58-366 170-170 113-273 273 0 98 140 98 110 0 159-49 103-99 334-176 232-78 400-78 213 0 399 141t294.5 370.5T2068 1225v37z"/><glyph unicode="Ю" d="M1343 1323q5-299 41-535 37-235 127-380 91-146 246-146 148 0 242 155.5t133 389 39 467.5v102q0 221-41 430t-133 342-240 133q-147 0-241.5-151.5T1380 1761t-41-418zm-532 942H692v-774h316l-4 20q0 238 90 496t262 428 397 170q270 0 445-195 174-194 251-487 78-293 78-584v-24q0-373-78-684-77-312-251.5-498T1757-53l-4-4q-299 0-471 225t-231.5 514-59.5 518H692V295h111q98 0 98-107v-82Q901 0 799 0H254Q147 0 147 106v82q0 107 111 107h98v1970h-98q-111 0-111 107v82q0 106 107 106h557q90 0 90-106v-82q0-107-90-107z"/><glyph unicode="Я" d="M807 1831q0-189 143-315 144-127 328-127h569v876h-598q-172 0-307-131t-135-303zm1655 729q110 0 110-102v-91q0-102-118-102h-263V295h263q118 0 118-107v-86q0-102-114-102h-848q-127 0-127 106v95q0 94 127 94h241v799h-352q-86 0-172-80t-164-203L741 184Q614 0 549 0H229Q106 0 106 106v99q0 90 123 90h152l479 680q98 160 180 172-295 57-452.5 227T430 1815l4 20q0 193 105 360 104 168 278 266.5t367 98.5h1278z"/><glyph unicode="а" d="M594 618q0-159 137-251.5t305-92.5q185 0 424 119 240 119 289 303v279q-180 74-365 74h-98q-270 0-481-97-211-96-211-334zm1192-364l-25 25Q1524 74 1360 16q-164-57-397-57h-41q-312 0-506 182-195 183-195 473v9q0 155 84 317t311 277q228 114 617 114 123 0 321-24 199-25 199-37v86q0 221-156 313-155 92-315 92h-8q-213 0-389-90t-258-90q-123 0-148 102-12 25-12 62 0 57 37 98 176 127 346 162t407 35h58q254 0 430-76t262-217 86-326V324h242q110 0 110-103V111q0-111-110-111h-434q-119 0-119 168z"/><glyph unicode="б" d="M1343 1745q-237 0-411-96.5T668 1384q-90-167-90-376 0-217 94-392 94-174 268-268t403-94q230 0 402 94t264 268q92 175 92 392 0 209-88 376-88 168-260 264.5t-410 96.5zm893 991v-12q0-139-180-182-164-39-424-39h-575q-217 0-371-162t-154-363v-323l37 4q95 168 265 274 170 107 509 107 398 0 654-160t364-397q109-238 109-479v-9q0-295-119-530.5T1978 94 1348-41Q971-41 715 92T336 460.5 209 995v1000q0 221 121 415 121 195 319 310 199 114 416 114h524q62 0 201 29t197 29h28q221 0 221-156z"/><glyph unicode="в" d="M1565 1212q106 0 218.5 74t112.5 193q0 110-104 165.5t-215 55.5H999v-488h566zm37-917q159 0 325 90t166 246q0 160-149 225-150 66-285 66H999V295h603zM303 1999h1344q217 0 428-141.5t211-366.5q0-107-95-223-94-117-213-150 197-28 348.5-151T2478 655q0-188-119-340-118-151-299-233-180-82-352-82H311Q201 0 201 106v82q0 107 110 107h353v1405H307q-110 0-110 102v86q0 111 106 111z"/><glyph unicode="г" d="M291 1999h2060q148 0 148-119v-680q0-147-103-147h-102q-103 0-103 147v500H1094V295h450q111 0 111-107v-82q0-106-111-106H287Q176 0 176 106v82q0 107 111 107h471v1405H299q-119 0-119 102v86q0 111 111 111z"/><glyph unicode="д" d="M1012 1696V926q0-135-49.5-340T848 295h1007v1405zm-606 4q-111 0-111 102v86q0 111 111 111h1933q106 0 106-111v-86q0-102-106-102h-144V295h177q73 0 73-74v-647q0-135-90-135h-131q-86 0-86 135V0H541v-426q0-135-90-135H319q-90 0-90 135v647q0 74 74 74h98q95 0 183 221t88 475v709H406z"/><glyph unicode="е" d="M1327-41h-41q-254 0-491.5 92T401 373Q246 602 246 975q0 274 108 518 109 244 361 395 252 152 641 152 405 0 647-168t334-371 92-317v-160q0-135-143-135H614v-37q0-78 43-209t213-256 502-125q209 0 496 131 291 131 409 131h25q115-4 115-106v-62q0-90-111-147Q1978 37 1794-2t-467-39zm705 1225v49q0 151-179 332-178 180-469 180h-12q-393 0-567-199-174-198-174-321v-41h1401z"/><glyph unicode="ж" d="M1081 0Q975 0 975 106v82q0 107 106 107h107v545l-152 102-409-647h69q111 0 111-107v-82Q807 0 696 0H164Q53 0 53 106v82q0 107 111 107h78l569 885-369 393q-94 94-266 127-106 16-106 102v86q0 111 106 111h541q106 0 106-111v-86q0-102-110-102h-74l549-582v586h-111q-106 0-106 106v86q0 103 106 103h520q111 0 111-103v-86q0-106-106-106h-115v-586l553 582h-74q-111 0-111 102v86q0 111 107 111h541q106 0 106-111v-86q0-86-106-102-176-29-267-127l-368-393 569-885h74q110 0 110-107v-82q0-106-110-106h-529q-110 0-110 106v82q0 107 110 107h70l-410 647-155-102V295h106q111 0 111-107v-82q0-106-111-106h-512z"/><glyph unicode="з" d="M1143 1196h266q143 0 299 94t156 226q0 167-156 214.5t-365 47.5q-270 0-419.5-76T705 1446q0-115-99-115H471q-115 0-115 115v450q0 144 107 144h127q115 0 115-119h40q37 49 183 100 145 52 424 52 331 0 530-82t274.5-207 75.5-260q0-156-123-256-122-101-319-174 287-99 409.5-203.5T2322 582q0-131-104-281-104-149-334-252-229-102-569-102-205 0-428 36.5T506 106q-158 87-158 222l4 4q0 131 168 131 127 0 221-70 189-86 312-110.5t286-24.5q213 0 408 82t195 246q0 159-168 237t-336 78h-283q-119 0-119 103v81q0 111 107 111z"/><glyph unicode="и" d="M1860 1602v98h-267q-106 0-106 106v86q0 107 106 107h746q110 0 110-107v-86q0-106-110-106h-139V295h139q110 0 110-107v-82q0-106-110-106h-746q-106 0-106 106v82q0 107 106 107h267v991L819 483V295h262q111 0 111-107v-82q0-106-111-106H340Q229 0 229 106v82q0 107 111 107h139v1405H340q-111 0-111 106v86q0 107 111 107h741q111 0 111-107v-86q0-106-111-106H819V786z"/><glyph unicode="й" d="M1004 2712q12-78 100-154t219-76q4 0 12 4h17l8-4q131 0 217 76t98 154q21 114 82 114h135q66 0 66-98 0-131-139.5-309T1339 2236q-340 5-479 183t-139 309q0 98 65 98h136q61 0 82-114zm856-1110v98h-267q-106 0-106 106v86q0 107 106 107h746q110 0 110-107v-86q0-106-110-106h-139V295h139q110 0 110-107v-82q0-106-110-106h-746q-106 0-106 106v82q0 107 106 107h267v991L819 483V295h262q111 0 111-107v-82q0-106-111-106H340Q229 0 229 106v82q0 107 111 107h139v1405H340q-111 0-111 106v86q0 107 111 107h741q111 0 111-107v-86q0-106-111-106H819V786z"/><glyph unicode="к" d="M197 102v82q0 111 110 111h250v1405H311q-110 0-110 110v86q0 103 110 103h733q107 0 107-103v-81q0-115-111-115H893v-529l631 541q-135 0-135 103v81q0 103 110 103h717q102 0 102-107v-86q0-106-110-106h-107q-98 0-225-70-195-106-195-110 5 0 80 36l-434-372 815-889h250q111 0 111-107v-82q0-106-111-106h-721q-102 0-102 90v74q0 61 73 102 58 35 68 35 2 0 2-2l-618 688-193-172V295h135q111 0 111-115V98q0-98-107-98H307Q197 0 197 102z"/><glyph unicode="л" d="M2232 1700V295h144q110 0 110-107v-82q0-106-110-106h-684q-107 0-107 106v82q0 107 107 107h204v1405h-843V991q0-106-39-342-39-235-162-448T508-12H344q-151 0-151 118v66q0 123 155 123h66q127 0 215 217t88 459v729H459q-111 0-111 106v86q0 107 111 107h1917q110 0 110-107v-86q0-106-110-106h-144z"/><glyph unicode="м" d="M2355 1700V295h172q111 0 111-107v-82q0-106-111-106h-741q-107 0-107 102v82q0 111 107 111h233v1282L1556 442q-45-131-131-131h-147q-90 0-135 119L659 1573V295h275q110 0 110-111v-82Q1044 0 938 0H147Q41 0 41 102v82q0 111 106 111h177v1405H193q-111 0-111 106v86q0 107 111 107h569q98 0 151-148l447-1216 455 1208q53 156 143 156h528q107 0 107-103v-86q0-110-111-110h-127z"/><glyph unicode="н" d="M1860 1208v492h-267q-106 0-106 106v86q0 107 106 107h746q110 0 110-107v-86q0-106-110-106h-139V295h139q110 0 110-107v-82q0-106-110-106h-746q-106 0-106 106v82q0 107 106 107h267v623H819V295h262q111 0 111-107v-82q0-106-111-106H340Q229 0 229 106v82q0 107 111 107h139v1405H340q-111 0-111 106v86q0 107 111 107h741q111 0 111-107v-86q0-106-111-106H819v-492h1041z"/><glyph unicode="о" d="M209 995q0 246 110 488 111 241 367 399t657 158q398 0 652-160t364-399q111-240 111-477v-9q0-295-129-530.5T1956 94 1348-41Q975-41 719 94T338 464.5 209 995zm369 13q0-217 94-392 94-174 268-268t403-94q226 0 400 94t266 268q92 175 92 392 0 196-94 366t-268 270.5-396 100.5h-12q-229 0-401-96.5T668 1382t-90-374z"/><glyph unicode="п" d="M340 1999h1999q110 0 110-107v-86q0-106-110-106h-139V295h139q110 0 110-107v-82q0-106-110-106h-746q-106 0-106 106v82q0 107 106 107h267v1405H819V295h262q111 0 111-107v-82q0-106-111-106H340Q229 0 229 106v82q0 107 111 107h139v1405H340q-111 0-111 106v86q0 107 111 107z"/><glyph unicode="с" d="M2154 618q5 0 33 5 33 4 58 4 82 0 118-62 25-24 25-73 0-62-66-156-127-135-380.5-256T1339-41q-274 0-518 125-243 125-389 358-145 234-145 537 0 287 123 530 122 244 366 387 244 144 580 144 184 0 341.5-35t346.5-141v49q0 98 123 98h86q119 0 119-131v-573q0-107-86-107h-144q-57 0-82 82-114 205-266 319.5T1393 1716q-201 0-371-94t-268.5-260T655 995q0-184 88-352t252-266 369-98q201 0 381 73 180 74 348 238z"/><glyph unicode="т" d="M2351 1999q90 0 90-90l33-832q0-114-98-114h-127q-99 0-99 114l-20 623h-623V295h475q119 0 119-107v-86q0-102-102-102H680Q578 0 578 102v86q0 107 118 107h475v1405H549l-21-623q0-114-98-114H303q-98 0-98 114l33 832q0 90 90 90h2023z"/><glyph unicode="у" d="M254 1999h766q110 0 110-111v-86q0-102-110-102H795l581-1200 582 1200h-229q-115 0-115 102v86q0 111 110 111h701q110 0 110-111v-86q0-102-110-102h-94L1200-561h234q110 0 110-107v-82q0-106-110-106H311q-110 0-110 106v82q0 107 110 107h516l365 700-795 1561H254q-111 0-111 102v86q0 111 111 111z"/><glyph unicode="ф" d="M463 983q0-299 63-506 64-207 285-207 233 0 303 197t70 520q0 324-74 533t-299 213q-217 0-283-224-65-223-65-526zm1749 0q0 307-64 528-63 222-280 222-226-4-301.5-215T1491 987q0-319 71.5-518T1868 270q221 0 282 207 62 207 62 506zM1176-561v754h-33q-37-99-154-160.5T745-29q-229 0-364 133-135 134-184.5 355T147 975q0 323 57.5 561T387 1903t313 129q160 0 283-64 123-63 160-162l28-4v729H672q-107 0-107 103v82q0 110 107 110h774q61 0 61-61v-963l29 4q37 99 160 162 123 64 282 64 189 0 314-129t182-367 57-561q0-295-49-516t-184-355Q2163-29 1933-29q-127 0-243.5 61.5T1536 193h-33v-754h307q111 0 111-107v-82q0-106-111-106H868q-110 0-110 106v82q0 107 110 107h308z"/><glyph unicode="х" d="M336 1999h708q111 0 111-111v-86q0-102-111-102H909l459-459 442 459h-176q-110 0-110 102v86q0 111 110 111h713q107 0 107-111v-86q0-102-115-102h-168l-615-656 750-749h90q103 0 103-107v-82q0-106-111-106h-713q-110 0-110 106v82q0 107 110 107h213l-536 528-496-528h176q111 0 111-107v-82q0-106-111-106H287Q176 0 176 102v82q0 111 111 111h168l700 725-680 680H336q-111 0-111 102v86q0 111 111 111z"/><glyph unicode="ц" d="M229 106v82q0 107 111 107h139v1405H340q-111 0-111 106v86q0 107 111 107h741q111 0 111-107v-86q0-106-111-106H819V295h1041v1405h-267q-106 0-106 106v86q0 107 106 107h746q110 0 110-107v-86q0-106-110-106h-139V295h139q106 0 106-90v-631q0-135-90-135h-131q-86 0-86 135V0H340Q229 0 229 106z"/><glyph unicode="ч" d="M1847 1700h-213q-110 0-110 106v86q0 107 110 107h738q110 0 110-107v-86q0-106-110-106h-185V295h180q115 0 115-102v-82q0-111-106-111h-946q-111 0-111 106v82q0 107 111 107h417v487H983q-192 0-365 160-172 160-172 369v389H303q-110 0-110 106v86q0 107 110 107h741q111 0 111-107v-86q0-106-111-106H782v-365q0-106 78-182t172-76h815v623z"/><glyph unicode="ш" d="M1499 1704V295h455v1409h-62q-94 0-94 106v86q0 103 94 103h512q90 0 90-103v-86q0-106-94-106h-114V295h102q102 0 102-107v-82q0-106-102-106H291Q188 0 188 106v82q0 107 103 107h102v1409H287q-94 0-94 106v86q0 103 90 103h512q90 0 90-103v-86q0-106-90-106h-70V295h459v1409h-70q-94 0-94 106v86q0 103 94 103h459q94 0 94-103v-86q0-106-94-106h-74z"/><glyph unicode="щ" d="M1667 1810q0-106-94-106h-74V295h455v1409h-62q-94 0-94 106v86q0 103 94 103h512q90 0 90-103v-86q0-106-94-106h-114V295h102q102 0 102-107v-618q0-131-86-131h-135q-86 0-86 135V0H291Q188 0 188 106v82q0 107 103 107h102v1409H287q-94 0-94 106v86q0 103 90 103h512q90 0 90-103v-86q0-106-90-106h-70V295h459v1409h-70q-94 0-94 106v86q0 103 94 103h459q94 0 94-103v-86z"/><glyph unicode="ъ" d="M2540 655q0-209-103-358-102-150-280.5-223.5T1757 0H700Q565 0 565 106v87q0 102 127 102h258v1405H446v-381q0-135-90-135H225q-90 0-90 135v561q0 119 148 119h1515q152 0 152-103v-90q0-106-152-106h-512v-402h447q225 0 409-73 185-74 291-219 107-146 107-347v-4zm-398 4q0 185-123 267t-278 82h-455V295h438q189 0 303.5 90T2142 659z"/><glyph unicode="ы" d="M1073 1700H705v-369h307q192 0 366-67.5t282.5-213T1769 688q0-237-141-393T1300 70Q1114 0 987 0H279Q168 0 168 106v82q0 107 111 107h98v1405h-94q-111 0-111 106v86q0 107 111 107h790q107 0 107-103v-86q0-110-107-110zm-368-664V295h245q135 0 283 100 147 101 147 285 0 147-131 251.5T946 1036H705zm1265-741v1405h-147q-111 0-111 106v86q0 107 107 107h594q110 0 110-107v-86q0-106-110-106h-115V295h110q111 0 111-107v-82q0-106-111-106h-589q-111 0-111 106v82q0 107 111 107h151z"/><glyph unicode="ь" d="M1004 1004V295h557q225 0 356 86t131 278q0 181-137 263t-305 82h-602zm-336 696H348q-115 0-115 98v98q0 103 119 103h1168q114 0 114-103v-102q0-94-118-94h-512v-402h573q225 0 426-73.5t321-218.5q121-146 121-347v-4q0-204-123-354-122-149-321-225T1577 0H352Q233 0 233 98v103l-4 4q0 90 127 90h312v1405z"/><glyph unicode="э" d="M586 590q168-164 344-234 176-69 385-77 287 4 495 196 209 193 209 443h-917q-119 0-119 73v119q0 86 119 86h901q-21 221-219.5 370.5T1282 1716q-250 0-399-117-150-116-265-317-24-82-81-82H393q-86 0-86 107v573q0 131 119 131h86q123 0 123-98v-49q188 106 346 141t342 35q336 0 580-144 243-143 366-387 123-243 123-530 0-303-147-537-148-233-390-358-241-125-516-125-348 0-604 121T356 336q-69 94-69 156 0 49 28 73 37 62 115 62 21 0 57-4 33-5 37-5z"/><glyph unicode="ю" d="M1733 1724q-246 0-330-223t-84-551q0-270 94-477t328-207q233 0 325 211 93 211 93 518 0 291-91 510-90 219-335 219zm-754-512q0 127 75.5 328t245.5 352q170 152 424 152 271 0 449-154 178-153 258-401t80-526q0-246-82-484-82-237-258-387-176-149-430-149h-4q-250 0-424 135t-258 354-84 469l4 17H709V295h110q107 0 107-107v-82Q926 0 815 0H279Q168 0 168 106v82q0 107 111 107h98v1405h-98q-111 0-111 106v86q0 107 106 107h549q103 0 103-107v-86q0-106-111-106H709v-488h270z"/><glyph unicode="я" d="M1245 1094h602v606h-630q-136 0-254.5-80T844 1417q0-143 131-233t270-90zm-37 905h1254q110 0 110-107v-86q0-106-114-106h-271V295h275q110 0 110-107v-82q0-106-98-106h-885q-110 0-110 106v82q0 107 110 107h258v504h-368q-66 0-136-58L602 25Q582 0 549 0H217Q106 0 106 106v82q0 107 111 107h168l606 532-16 37q-205 0-367 170t-162 355q0 274 223.5 442t538.5 168z"/><glyph horiz-adv-x="1739"/><glyph horiz-adv-x="3478"/><glyph horiz-adv-x="1739"/><glyph horiz-adv-x="3478"/><glyph horiz-adv-x="1159"/><glyph horiz-adv-x="869"/><glyph horiz-adv-x="579"/><glyph horiz-adv-x="579"/><glyph horiz-adv-x="434"/><glyph horiz-adv-x="695"/><glyph horiz-adv-x="193"/><glyph unicode="‐" d="M2232 782H451q-99 0-99 82v160q0 86 103 86h1765q107 0 107-86V868q0-86-95-86z"/><glyph unicode="‑" d="M2232 782H451q-99 0-99 82v160q0 86 103 86h1765q107 0 107-86V868q0-86-95-86z"/><glyph unicode="‒" d="M2232 782H451q-99 0-99 82v160q0 86 103 86h1765q107 0 107-86V868q0-86-95-86z"/><glyph unicode="–" d="M2011 1192q107 0 107-86V868q0-86-95-86H651q-98 0-98 82v242q0 86 102 86h1356z"/><glyph unicode="—" horiz-adv-x="2679" d="M0 0v2679h2679V0H0z"/><glyph unicode="‘" d="M1487 2757q29 77 102 77 17 0 37-4l180-73q45-21 45-78 0-21-8-62l-287-1093q0-74-69-99H942q-53 0-53 62 0 20 8 53z"/><glyph unicode="’" d="M1225 1503q-37-82-107-82-20 0-37 9l-180 73q-45 25-45 78 0 8 4 29l8 32 287 1094q0 74 66 98h548q46 0 46-61 0-25-9-57l4 4z"/><glyph unicode="“" d="M1921 2748q33 78 102 78 21 0 41-4l181-74q45-20 45-77 0-25-9-58l-286-1097q0-74-70-99h-545q-53 0-53 62 0 20 8 53zm-1053 0q29 78 103 78 16 0 37-4l180-74q45-20 45-77 0-25-8-58L938 1516q0-70-66-99H324q-54 0-54 62 0 20 9 53z"/><glyph unicode="”" d="M668 1499q-37-82-107-82-20 0-37 8l-180 74q-49 25-49 78 0 8 4 29l8 32 287 1094q0 74 70 98h544q49 0 49-61 0-25-8-53h4zm1052 0q-37-82-106-82-21 0-33 8l-184 74q-45 25-45 78 0 8 4 29l8 32 287 1094q0 70 65 98h549q45 0 45-61 0-25-4-53z"/><glyph horiz-adv-x="695"/><glyph horiz-adv-x="869"/><glyph unicode="◼" horiz-adv-x="2000" d="M0 2000h2000V0H0v2000z"/></font>
</defs>
</svg>
